M48
; DRILL file {KiCad 9.0.2+dfsg-1} date 2026-05-13T04:43:25+0000
; FORMAT={-:-/ absolute / metric / decimal}
; #@! TF.CreationDate,2026-05-13T04:43:25+00:00
; #@! TF.GenerationSoftware,Kicad,Pcbnew,9.0.2+dfsg-1
; #@! TF.FileFunction,Plated,1,4,PTH
FMAT,2
METRIC
; #@! TA.AperFunction,Plated,PTH,ViaDrill
T1C0.300
; #@! TA.AperFunction,Plated,PTH,ComponentDrill
T2C0.300
; #@! TA.AperFunction,Plated,PTH,ViaDrill
T3C0.350
; #@! TA.AperFunction,Plated,PTH,ComponentDrill
T4C0.600
; #@! TA.AperFunction,Plated,PTH,ComponentDrill
T5C1.000
; #@! TA.AperFunction,Plated,PTH,ComponentDrill
T6C1.800
%
G90
G05
T1
X5.0Y-62.819
X5.0Y-68.237
X7.022Y-54.618
X7.337Y-28.194
X10.006Y-63.721
X10.019Y-69.05
X10.375Y-43.086
X10.921Y-78.827
X13.014Y-80.448
X13.919Y-54.175
X15.384Y-61.675
X15.399Y-60.469
X15.944Y-61.073
X18.569Y-62.04
X18.61Y-59.695
X18.616Y-60.708
X19.863Y-58.355
X21.191Y-61.706
X21.958Y-62.11
X22.421Y-61.193
X25.0Y-78.231
X25.915Y-61.231
X30.984Y-63.935
X30.988Y-78.827
X32.131Y-67.544
X33.587Y-58.982
X34.112Y-66.912
X34.247Y-56.472
X35.244Y-54.931
X36.0Y-78.227
X36.087Y-56.812
X39.087Y-54.288
X39.311Y-52.298
X40.929Y-55.825
X40.995Y-63.017
X43.415Y-69.547
X44.017Y-70.166
X44.622Y-70.719
X45.179Y-71.386
X49.163Y-68.649
X49.378Y-69.75
X51.0Y-63.232
X51.0Y-78.245
X51.038Y-53.002
X51.348Y-67.69
X51.537Y-52.021
X51.962Y-60.956
X53.14Y-51.172
X53.974Y-79.336
X57.912Y-60.956
X58.133Y-50.847
X58.298Y-52.961
X60.972Y-54.081
X62.0Y-82.795
X62.102Y-87.195
X66.0Y-53.188
X66.0Y-58.247
X66.005Y-88.76
X69.012Y-89.513
X69.815Y-81.805
X70.0Y-58.237
X70.0Y-88.222
X70.745Y-56.57
X71.239Y-46.5
X72.3Y-47.614
X73.261Y-58.455
X74.0Y-53.196
X74.475Y-93.92
X75.75Y-100.318
X76.0Y-93.231
X82.0Y-53.183
X84.0Y-58.242
X84.0Y-90.241
X85.313Y-90.638
X86.579Y-81.313
X87.662Y-16.28
X87.662Y-33.135
T2
X75.6Y-78.875
X75.6Y-81.125
X77.2Y-78.875
X77.2Y-81.125
X78.8Y-78.875
X78.8Y-81.125
X80.4Y-78.875
X80.4Y-81.125
T3
X48.646Y-66.726
X49.969Y-55.825
T5
X17.0Y-103.0
X17.0Y-105.54
X17.0Y-108.08
X17.0Y-110.62
X47.0Y-103.0
X47.0Y-105.54
T6
X11.5Y2.85
T4
X86.95Y-50.38G85X86.95Y-50.98
G05
X86.95Y-59.02G85X86.95Y-59.62
G05
X91.13Y-50.13G85X91.13Y-51.23
G05
X91.13Y-58.77G85X91.13Y-59.87
G05
M30
