%TF.GenerationSoftware,KiCad,Pcbnew,9.0.2+dfsg-1*%
%TF.CreationDate,2026-05-13T04:43:25+00:00*%
%TF.ProjectId,power_module,706f7765-725f-46d6-9f64-756c652e6b69,rev?*%
%TF.SameCoordinates,Original*%
%TF.FileFunction,Other,User*%
%FSLAX46Y46*%
G04 Gerber Fmt 4.6, Leading zero omitted, Abs format (unit mm)*
G04 Created by KiCad (PCBNEW 9.0.2+dfsg-1) date 2026-05-13 04:43:25*
%MOMM*%
%LPD*%
G01*
G04 APERTURE LIST*
%ADD10C,0.050000*%
G04 APERTURE END LIST*
D10*
%TO.C,U2*%
X68820000Y-45570000D02*
X70250000Y-45570000D01*
X68820000Y-48430000D02*
X68820000Y-45570000D01*
X70250000Y-45250000D02*
X73750000Y-45250000D01*
X70250000Y-45570000D02*
X70250000Y-45250000D01*
X70250000Y-48430000D02*
X68820000Y-48430000D01*
X70250000Y-48750000D02*
X70250000Y-48430000D01*
X73750000Y-45250000D02*
X73750000Y-45570000D01*
X73750000Y-45570000D02*
X75180000Y-45570000D01*
X73750000Y-48430000D02*
X73750000Y-48750000D01*
X73750000Y-48750000D02*
X70250000Y-48750000D01*
X75180000Y-45570000D02*
X75180000Y-48430000D01*
X75180000Y-48430000D02*
X73750000Y-48430000D01*
%TO.C,R12*%
X35270000Y-53520000D02*
X36730000Y-53520000D01*
X35270000Y-56480000D02*
X35270000Y-53520000D01*
X36730000Y-53520000D02*
X36730000Y-56480000D01*
X36730000Y-56480000D02*
X35270000Y-56480000D01*
%TO.C,R8*%
X12270000Y-53520000D02*
X13730000Y-53520000D01*
X12270000Y-56480000D02*
X12270000Y-53520000D01*
X13730000Y-53520000D02*
X13730000Y-56480000D01*
X13730000Y-56480000D02*
X12270000Y-56480000D01*
%TO.C,L2*%
X61700000Y-76700000D02*
X68300000Y-76700000D01*
X61700000Y-83300000D02*
X61700000Y-76700000D01*
X68300000Y-76700000D02*
X68300000Y-83300000D01*
X68300000Y-83300000D02*
X61700000Y-83300000D01*
%TO.C,R10*%
X41870000Y-72720000D02*
X44130000Y-72720000D01*
X41870000Y-77280000D02*
X41870000Y-72720000D01*
X44130000Y-72720000D02*
X44130000Y-77280000D01*
X44130000Y-77280000D02*
X41870000Y-77280000D01*
%TO.C,R9*%
X20270000Y-53520000D02*
X21730000Y-53520000D01*
X20270000Y-56480000D02*
X20270000Y-53520000D01*
X21730000Y-53520000D02*
X21730000Y-56480000D01*
X21730000Y-56480000D02*
X20270000Y-56480000D01*
%TO.C,R6*%
X4270000Y-53520000D02*
X5730000Y-53520000D01*
X4270000Y-56480000D02*
X4270000Y-53520000D01*
X5730000Y-53520000D02*
X5730000Y-56480000D01*
X5730000Y-56480000D02*
X4270000Y-56480000D01*
%TO.C,R23*%
X69270000Y-53520000D02*
X70730000Y-53520000D01*
X69270000Y-56480000D02*
X69270000Y-53520000D01*
X70730000Y-53520000D02*
X70730000Y-56480000D01*
X70730000Y-56480000D02*
X69270000Y-56480000D01*
%TO.C,C15*%
X54020000Y-78300000D02*
X55980000Y-78300000D01*
X54020000Y-81700000D02*
X54020000Y-78300000D01*
X55980000Y-78300000D02*
X55980000Y-81700000D01*
X55980000Y-81700000D02*
X54020000Y-81700000D01*
%TO.C,C31*%
X83270000Y-58520000D02*
X84730000Y-58520000D01*
X83270000Y-61480000D02*
X83270000Y-58520000D01*
X84730000Y-58520000D02*
X84730000Y-61480000D01*
X84730000Y-61480000D02*
X83270000Y-61480000D01*
%TO.C,C23*%
X61270000Y-73520000D02*
X62730000Y-73520000D01*
X61270000Y-76480000D02*
X61270000Y-73520000D01*
X62730000Y-73520000D02*
X62730000Y-76480000D01*
X62730000Y-76480000D02*
X61270000Y-76480000D01*
%TO.C,R14*%
X43270000Y-53520000D02*
X44730000Y-53520000D01*
X43270000Y-56480000D02*
X43270000Y-53520000D01*
X44730000Y-53520000D02*
X44730000Y-56480000D01*
X44730000Y-56480000D02*
X43270000Y-56480000D01*
%TO.C,R27*%
X86520000Y-89270000D02*
X89480000Y-89270000D01*
X86520000Y-90730000D02*
X86520000Y-89270000D01*
X89480000Y-89270000D02*
X89480000Y-90730000D01*
X89480000Y-90730000D02*
X86520000Y-90730000D01*
%TO.C,C10*%
X31020000Y-78300000D02*
X32980000Y-78300000D01*
X31020000Y-81700000D02*
X31020000Y-78300000D01*
X32980000Y-78300000D02*
X32980000Y-81700000D01*
X32980000Y-81700000D02*
X31020000Y-81700000D01*
%TO.C,C13*%
X31020000Y-63300000D02*
X32980000Y-63300000D01*
X31020000Y-66700000D02*
X31020000Y-63300000D01*
X32980000Y-63300000D02*
X32980000Y-66700000D01*
X32980000Y-66700000D02*
X31020000Y-66700000D01*
%TO.C,R3*%
X52270000Y-51520000D02*
X53730000Y-51520000D01*
X52270000Y-54480000D02*
X52270000Y-51520000D01*
X53730000Y-51520000D02*
X53730000Y-54480000D01*
X53730000Y-54480000D02*
X52270000Y-54480000D01*
%TO.C,J2*%
X45230000Y-101230000D02*
X45230000Y-107320000D01*
X45230000Y-107320000D02*
X48770000Y-107320000D01*
X48770000Y-101230000D02*
X45230000Y-101230000D01*
X48770000Y-107320000D02*
X48770000Y-101230000D01*
%TO.C,J3*%
X15230000Y-101230000D02*
X15230000Y-112390000D01*
X15230000Y-112390000D02*
X18770000Y-112390000D01*
X18770000Y-101230000D02*
X15230000Y-101230000D01*
X18770000Y-112390000D02*
X18770000Y-101230000D01*
%TO.C,C16*%
X50270000Y-78520000D02*
X51730000Y-78520000D01*
X50270000Y-81480000D02*
X50270000Y-78520000D01*
X51730000Y-78520000D02*
X51730000Y-81480000D01*
X51730000Y-81480000D02*
X50270000Y-81480000D01*
%TO.C,R22*%
X65270000Y-53520000D02*
X66730000Y-53520000D01*
X65270000Y-56480000D02*
X65270000Y-53520000D01*
X66730000Y-53520000D02*
X66730000Y-56480000D01*
X66730000Y-56480000D02*
X65270000Y-56480000D01*
%TO.C,R11*%
X31270000Y-53520000D02*
X32730000Y-53520000D01*
X31270000Y-56480000D02*
X31270000Y-53520000D01*
X32730000Y-53520000D02*
X32730000Y-56480000D01*
X32730000Y-56480000D02*
X31270000Y-56480000D01*
%TO.C,C4*%
X58270000Y-56520000D02*
X59730000Y-56520000D01*
X58270000Y-59480000D02*
X58270000Y-56520000D01*
X59730000Y-56520000D02*
X59730000Y-59480000D01*
X59730000Y-59480000D02*
X58270000Y-59480000D01*
%TO.C,TH1*%
X24270000Y-60520000D02*
X25730000Y-60520000D01*
X24270000Y-63480000D02*
X24270000Y-60520000D01*
X25730000Y-60520000D02*
X25730000Y-63480000D01*
X25730000Y-63480000D02*
X24270000Y-63480000D01*
%TO.C,R1*%
X34270000Y-51520000D02*
X35730000Y-51520000D01*
X34270000Y-54480000D02*
X34270000Y-51520000D01*
X35730000Y-51520000D02*
X35730000Y-54480000D01*
X35730000Y-54480000D02*
X34270000Y-54480000D01*
%TO.C,C22*%
X73270000Y-58520000D02*
X74730000Y-58520000D01*
X73270000Y-61480000D02*
X73270000Y-58520000D01*
X74730000Y-58520000D02*
X74730000Y-61480000D01*
X74730000Y-61480000D02*
X73270000Y-61480000D01*
%TO.C,D1*%
X58320000Y-49050000D02*
X61680000Y-49050000D01*
X58320000Y-50950000D02*
X58320000Y-49050000D01*
X61680000Y-49050000D02*
X61680000Y-50950000D01*
X61680000Y-50950000D02*
X58320000Y-50950000D01*
%TO.C,C20*%
X69270000Y-58520000D02*
X70730000Y-58520000D01*
X69270000Y-61480000D02*
X69270000Y-58520000D01*
X70730000Y-58520000D02*
X70730000Y-61480000D01*
X70730000Y-61480000D02*
X69270000Y-61480000D01*
%TO.C,C9*%
X24270000Y-78520000D02*
X25730000Y-78520000D01*
X24270000Y-81480000D02*
X24270000Y-78520000D01*
X25730000Y-78520000D02*
X25730000Y-81480000D01*
X25730000Y-81480000D02*
X24270000Y-81480000D01*
%TO.C,C7*%
X4270000Y-68520000D02*
X5730000Y-68520000D01*
X4270000Y-71480000D02*
X4270000Y-68520000D01*
X5730000Y-68520000D02*
X5730000Y-71480000D01*
X5730000Y-71480000D02*
X4270000Y-71480000D01*
%TO.C,D2*%
X86320000Y-94050000D02*
X89680000Y-94050000D01*
X86320000Y-95950000D02*
X86320000Y-94050000D01*
X89680000Y-94050000D02*
X89680000Y-95950000D01*
X89680000Y-95950000D02*
X86320000Y-95950000D01*
%TO.C,R25*%
X81270000Y-53520000D02*
X82730000Y-53520000D01*
X81270000Y-56480000D02*
X81270000Y-53520000D01*
X82730000Y-53520000D02*
X82730000Y-56480000D01*
X82730000Y-56480000D02*
X81270000Y-56480000D01*
%TO.C,R5*%
X10870000Y-77720000D02*
X13130000Y-77720000D01*
X10870000Y-82280000D02*
X10870000Y-77720000D01*
X13130000Y-77720000D02*
X13130000Y-82280000D01*
X13130000Y-82280000D02*
X10870000Y-82280000D01*
%TO.C,SW1*%
X73600000Y-100550000D02*
X82400000Y-100550000D01*
X73600000Y-105100000D02*
X73600000Y-100550000D01*
X76350000Y-105100000D02*
X73600000Y-105100000D01*
X76350000Y-106400000D02*
X76350000Y-105100000D01*
X79650000Y-105100000D02*
X79650000Y-106400000D01*
X79650000Y-106400000D02*
X76350000Y-106400000D01*
X82400000Y-100550000D02*
X82400000Y-105100000D01*
X82400000Y-105100000D02*
X79650000Y-105100000D01*
%TO.C,R24*%
X73270000Y-53520000D02*
X74730000Y-53520000D01*
X73270000Y-56480000D02*
X73270000Y-53520000D01*
X74730000Y-53520000D02*
X74730000Y-56480000D01*
X74730000Y-56480000D02*
X73270000Y-56480000D01*
%TO.C,C11*%
X35270000Y-78520000D02*
X36730000Y-78520000D01*
X35270000Y-81480000D02*
X35270000Y-78520000D01*
X36730000Y-78520000D02*
X36730000Y-81480000D01*
X36730000Y-81480000D02*
X35270000Y-81480000D01*
%TO.C,C25*%
X61020000Y-83300000D02*
X62980000Y-83300000D01*
X61020000Y-86700000D02*
X61020000Y-83300000D01*
X62980000Y-83300000D02*
X62980000Y-86700000D01*
X62980000Y-86700000D02*
X61020000Y-86700000D01*
%TO.C,Q2*%
X52300000Y-67800000D02*
X52540000Y-67800000D01*
X52300000Y-72200000D02*
X52300000Y-67800000D01*
X52540000Y-66300000D02*
X57460000Y-66300000D01*
X52540000Y-67800000D02*
X52540000Y-66300000D01*
X52540000Y-72200000D02*
X52300000Y-72200000D01*
X52540000Y-73700000D02*
X52540000Y-72200000D01*
X57460000Y-66300000D02*
X57460000Y-67800000D01*
X57460000Y-67800000D02*
X57700000Y-67800000D01*
X57460000Y-72200000D02*
X57460000Y-73700000D01*
X57460000Y-73700000D02*
X52540000Y-73700000D01*
X57700000Y-67800000D02*
X57700000Y-72200000D01*
X57700000Y-72200000D02*
X57460000Y-72200000D01*
%TO.C,C5*%
X4020000Y-63300000D02*
X5980000Y-63300000D01*
X4020000Y-66700000D02*
X4020000Y-63300000D01*
X5980000Y-63300000D02*
X5980000Y-66700000D01*
X5980000Y-66700000D02*
X4020000Y-66700000D01*
%TO.C,C17*%
X59270000Y-53520000D02*
X60730000Y-53520000D01*
X59270000Y-56480000D02*
X59270000Y-53520000D01*
X60730000Y-53520000D02*
X60730000Y-56480000D01*
X60730000Y-56480000D02*
X59270000Y-56480000D01*
%TO.C,C28*%
X83270000Y-90520000D02*
X84730000Y-90520000D01*
X83270000Y-93480000D02*
X83270000Y-90520000D01*
X84730000Y-90520000D02*
X84730000Y-93480000D01*
X84730000Y-93480000D02*
X83270000Y-93480000D01*
%TO.C,L1*%
X34500000Y-66700000D02*
X41500000Y-66700000D01*
X34500000Y-73300000D02*
X34500000Y-66700000D01*
X41500000Y-66700000D02*
X41500000Y-73300000D01*
X41500000Y-73300000D02*
X34500000Y-73300000D01*
%TO.C,R2*%
X40270000Y-51520000D02*
X41730000Y-51520000D01*
X40270000Y-54480000D02*
X40270000Y-51520000D01*
X41730000Y-51520000D02*
X41730000Y-54480000D01*
X41730000Y-54480000D02*
X40270000Y-54480000D01*
%TO.C,R21*%
X61270000Y-53520000D02*
X62730000Y-53520000D01*
X61270000Y-56480000D02*
X61270000Y-53520000D01*
X62730000Y-53520000D02*
X62730000Y-56480000D01*
X62730000Y-56480000D02*
X61270000Y-56480000D01*
%TO.C,R15*%
X47270000Y-53520000D02*
X48730000Y-53520000D01*
X47270000Y-56480000D02*
X47270000Y-53520000D01*
X48730000Y-53520000D02*
X48730000Y-56480000D01*
X48730000Y-56480000D02*
X47270000Y-56480000D01*
%TO.C,R26*%
X86520000Y-79270000D02*
X89480000Y-79270000D01*
X86520000Y-80730000D02*
X86520000Y-79270000D01*
X89480000Y-79270000D02*
X89480000Y-80730000D01*
X89480000Y-80730000D02*
X86520000Y-80730000D01*
%TO.C,C21*%
X65270000Y-58520000D02*
X66730000Y-58520000D01*
X65270000Y-61480000D02*
X65270000Y-58520000D01*
X66730000Y-58520000D02*
X66730000Y-61480000D01*
X66730000Y-61480000D02*
X65270000Y-61480000D01*
%TO.C,U3*%
X44870000Y-68870000D02*
X45250000Y-68870000D01*
X44870000Y-71130000D02*
X44870000Y-68870000D01*
X45250000Y-68250000D02*
X45870000Y-68250000D01*
X45250000Y-68870000D02*
X45250000Y-68250000D01*
X45250000Y-71130000D02*
X44870000Y-71130000D01*
X45250000Y-71750000D02*
X45250000Y-71130000D01*
X45870000Y-67870000D02*
X48130000Y-67870000D01*
X45870000Y-68250000D02*
X45870000Y-67870000D01*
X45870000Y-71750000D02*
X45250000Y-71750000D01*
X45870000Y-72130000D02*
X45870000Y-71750000D01*
X48130000Y-67870000D02*
X48130000Y-68250000D01*
X48130000Y-68250000D02*
X48750000Y-68250000D01*
X48130000Y-71750000D02*
X48130000Y-72130000D01*
X48130000Y-72130000D02*
X45870000Y-72130000D01*
X48750000Y-68250000D02*
X48750000Y-68870000D01*
X48750000Y-68870000D02*
X49130000Y-68870000D01*
X48750000Y-71130000D02*
X48750000Y-71750000D01*
X48750000Y-71750000D02*
X48130000Y-71750000D01*
X49130000Y-68870000D02*
X49130000Y-71130000D01*
X49130000Y-71130000D02*
X48750000Y-71130000D01*
%TO.C,J1*%
X83850000Y-49680000D02*
X83850000Y-60320000D01*
X93270000Y-49680000D02*
X83850000Y-49680000D01*
X93270000Y-49680000D02*
X93270000Y-60320000D01*
X93270000Y-60320000D02*
X83850000Y-60320000D01*
%TO.C,C6*%
X8020000Y-63300000D02*
X9980000Y-63300000D01*
X8020000Y-66700000D02*
X8020000Y-63300000D01*
X9980000Y-63300000D02*
X9980000Y-66700000D01*
X9980000Y-66700000D02*
X8020000Y-66700000D01*
%TO.C,C30*%
X75270000Y-93520000D02*
X76730000Y-93520000D01*
X75270000Y-96480000D02*
X75270000Y-93520000D01*
X76730000Y-93520000D02*
X76730000Y-96480000D01*
X76730000Y-96480000D02*
X75270000Y-96480000D01*
%TO.C,Q4*%
X85300000Y-82800000D02*
X85540000Y-82800000D01*
X85300000Y-87200000D02*
X85300000Y-82800000D01*
X85540000Y-81300000D02*
X90460000Y-81300000D01*
X85540000Y-82800000D02*
X85540000Y-81300000D01*
X85540000Y-87200000D02*
X85300000Y-87200000D01*
X85540000Y-88700000D02*
X85540000Y-87200000D01*
X90460000Y-81300000D02*
X90460000Y-82800000D01*
X90460000Y-82800000D02*
X90700000Y-82800000D01*
X90460000Y-87200000D02*
X90460000Y-88700000D01*
X90460000Y-88700000D02*
X85540000Y-88700000D01*
X90700000Y-82800000D02*
X90700000Y-87200000D01*
X90700000Y-87200000D02*
X90460000Y-87200000D01*
%TO.C,U1*%
X13150000Y-58620000D02*
X14550000Y-58620000D01*
X13150000Y-65380000D02*
X13150000Y-58620000D01*
X14550000Y-58500000D02*
X19450000Y-58500000D01*
X14550000Y-58620000D02*
X14550000Y-58500000D01*
X14550000Y-65380000D02*
X13150000Y-65380000D01*
X14550000Y-65500000D02*
X14550000Y-65380000D01*
X19450000Y-58500000D02*
X19450000Y-58620000D01*
X19450000Y-58620000D02*
X20850000Y-58620000D01*
X19450000Y-65380000D02*
X19450000Y-65500000D01*
X19450000Y-65500000D02*
X14550000Y-65500000D01*
X20850000Y-58620000D02*
X20850000Y-65380000D01*
X20850000Y-65380000D02*
X19450000Y-65380000D01*
%TO.C,R20*%
X71870000Y-85720000D02*
X74130000Y-85720000D01*
X71870000Y-90280000D02*
X71870000Y-85720000D01*
X74130000Y-85720000D02*
X74130000Y-90280000D01*
X74130000Y-90280000D02*
X71870000Y-90280000D01*
%TO.C,C2*%
X40270000Y-56520000D02*
X41730000Y-56520000D01*
X40270000Y-59480000D02*
X40270000Y-56520000D01*
X41730000Y-56520000D02*
X41730000Y-59480000D01*
X41730000Y-59480000D02*
X40270000Y-59480000D01*
%TO.C,C24*%
X61270000Y-78520000D02*
X62730000Y-78520000D01*
X61270000Y-81480000D02*
X61270000Y-78520000D01*
X62730000Y-78520000D02*
X62730000Y-81480000D01*
X62730000Y-81480000D02*
X61270000Y-81480000D01*
%TO.C,R7*%
X8270000Y-53520000D02*
X9730000Y-53520000D01*
X8270000Y-56480000D02*
X8270000Y-53520000D01*
X9730000Y-53520000D02*
X9730000Y-56480000D01*
X9730000Y-56480000D02*
X8270000Y-56480000D01*
%TO.C,C26*%
X69270000Y-88520000D02*
X70730000Y-88520000D01*
X69270000Y-91480000D02*
X69270000Y-88520000D01*
X70730000Y-88520000D02*
X70730000Y-91480000D01*
X70730000Y-91480000D02*
X69270000Y-91480000D01*
%TO.C,U4*%
X72900000Y-77550000D02*
X73320000Y-77550000D01*
X72900000Y-82450000D02*
X72900000Y-77550000D01*
X73320000Y-76150000D02*
X82680000Y-76150000D01*
X73320000Y-77550000D02*
X73320000Y-76150000D01*
X73320000Y-82450000D02*
X72900000Y-82450000D01*
X73320000Y-83850000D02*
X73320000Y-82450000D01*
X82680000Y-76150000D02*
X82680000Y-77550000D01*
X82680000Y-77550000D02*
X83100000Y-77550000D01*
X82680000Y-82450000D02*
X82680000Y-83850000D01*
X82680000Y-83850000D02*
X73320000Y-83850000D01*
X83100000Y-77550000D02*
X83100000Y-82450000D01*
X83100000Y-82450000D02*
X82680000Y-82450000D01*
%TO.C,C12*%
X40270000Y-63520000D02*
X41730000Y-63520000D01*
X40270000Y-66480000D02*
X40270000Y-63520000D01*
X41730000Y-63520000D02*
X41730000Y-66480000D01*
X41730000Y-66480000D02*
X40270000Y-66480000D01*
%TO.C,C8*%
X8020000Y-68300000D02*
X9980000Y-68300000D01*
X8020000Y-71700000D02*
X8020000Y-68300000D01*
X9980000Y-68300000D02*
X9980000Y-71700000D01*
X9980000Y-71700000D02*
X8020000Y-71700000D01*
%TO.C,C27*%
X64020000Y-88300000D02*
X65980000Y-88300000D01*
X64020000Y-91700000D02*
X64020000Y-88300000D01*
X65980000Y-88300000D02*
X65980000Y-91700000D01*
X65980000Y-91700000D02*
X64020000Y-91700000D01*
%TO.C,R16*%
X51270000Y-53520000D02*
X52730000Y-53520000D01*
X51270000Y-56480000D02*
X51270000Y-53520000D01*
X52730000Y-53520000D02*
X52730000Y-56480000D01*
X52730000Y-56480000D02*
X51270000Y-56480000D01*
%TO.C,C1*%
X34270000Y-56520000D02*
X35730000Y-56520000D01*
X34270000Y-59480000D02*
X34270000Y-56520000D01*
X35730000Y-56520000D02*
X35730000Y-59480000D01*
X35730000Y-59480000D02*
X34270000Y-59480000D01*
%TO.C,C29*%
X70700000Y-93850000D02*
X75300000Y-93850000D01*
X70700000Y-96150000D02*
X70700000Y-93850000D01*
X75300000Y-93850000D02*
X75300000Y-96150000D01*
X75300000Y-96150000D02*
X70700000Y-96150000D01*
%TO.C,C14*%
X50270000Y-63520000D02*
X51730000Y-63520000D01*
X50270000Y-66480000D02*
X50270000Y-63520000D01*
X51730000Y-63520000D02*
X51730000Y-66480000D01*
X51730000Y-66480000D02*
X50270000Y-66480000D01*
%TO.C,Q3*%
X85300000Y-72800000D02*
X85540000Y-72800000D01*
X85300000Y-77200000D02*
X85300000Y-72800000D01*
X85540000Y-71300000D02*
X90460000Y-71300000D01*
X85540000Y-72800000D02*
X85540000Y-71300000D01*
X85540000Y-77200000D02*
X85300000Y-77200000D01*
X85540000Y-78700000D02*
X85540000Y-77200000D01*
X90460000Y-71300000D02*
X90460000Y-72800000D01*
X90460000Y-72800000D02*
X90700000Y-72800000D01*
X90460000Y-77200000D02*
X90460000Y-78700000D01*
X90460000Y-78700000D02*
X85540000Y-78700000D01*
X90700000Y-72800000D02*
X90700000Y-77200000D01*
X90700000Y-77200000D02*
X90460000Y-77200000D01*
%TO.C,Q1*%
X14300000Y-77800000D02*
X14540000Y-77800000D01*
X14300000Y-82200000D02*
X14300000Y-77800000D01*
X14540000Y-76300000D02*
X19460000Y-76300000D01*
X14540000Y-77800000D02*
X14540000Y-76300000D01*
X14540000Y-82200000D02*
X14300000Y-82200000D01*
X14540000Y-83700000D02*
X14540000Y-82200000D01*
X19460000Y-76300000D02*
X19460000Y-77800000D01*
X19460000Y-77800000D02*
X19700000Y-77800000D01*
X19460000Y-82200000D02*
X19460000Y-83700000D01*
X19460000Y-83700000D02*
X14540000Y-83700000D01*
X19700000Y-77800000D02*
X19700000Y-82200000D01*
X19700000Y-82200000D02*
X19460000Y-82200000D01*
%TO.C,R4*%
X58270000Y-51520000D02*
X59730000Y-51520000D01*
X58270000Y-54480000D02*
X58270000Y-51520000D01*
X59730000Y-51520000D02*
X59730000Y-54480000D01*
X59730000Y-54480000D02*
X58270000Y-54480000D01*
%TO.C,C3*%
X52270000Y-56520000D02*
X53730000Y-56520000D01*
X52270000Y-59480000D02*
X52270000Y-56520000D01*
X53730000Y-56520000D02*
X53730000Y-59480000D01*
X53730000Y-59480000D02*
X52270000Y-59480000D01*
%TO.C,R13*%
X39270000Y-53520000D02*
X40730000Y-53520000D01*
X39270000Y-56480000D02*
X39270000Y-53520000D01*
X40730000Y-53520000D02*
X40730000Y-56480000D01*
X40730000Y-56480000D02*
X39270000Y-56480000D01*
%TO.C,BAT1*%
X8700000Y5400000D02*
X86300000Y5400000D01*
X8700000Y-51400000D02*
X8700000Y5400000D01*
X86300000Y5400000D02*
X86300000Y-51400000D01*
X86300000Y-51400000D02*
X8700000Y-51400000D01*
%TD*%
M02*
